<mxfile host="65bd71144e" modified="2023-06-30T13:26:07.054Z" agent="Mozilla/5.0 (X11; Linux x86_64) AppleWebKit/537.36 (KHTML, like Gecko) Code/1.79.2 Chrome/108.0.5359.215 Electron/22.5.7 Safari/537.36" etag="jMZNvfBM_Tf47a2A_h68" version="21.5.2" type="embed" pages="2">
    <diagram id="5orpailIcevLj2fID1Hy" name="subjects">
        <mxGraphModel dx="953" dy="537" grid="1" gridSize="10" guides="1" tooltips="1" connect="1" arrows="1" fold="1" page="1" pageScale="1" pageWidth="827" pageHeight="1169" math="0" shadow="0">
            <root>
                <mxCell id="0"/>
                <mxCell id="1" parent="0"/>
                <mxCell id="3" value="" style="edgeStyle=orthogonalEdgeStyle;rounded=0;orthogonalLoop=1;jettySize=auto;html=1;" parent="1" source="4" target="6" edge="1">
                    <mxGeometry relative="1" as="geometry"/>
                </mxCell>
                <mxCell id="4" value="" style="rounded=0;whiteSpace=wrap;html=1;" parent="1" vertex="1">
                    <mxGeometry x="360" y="240" width="80" height="80" as="geometry"/>
                </mxCell>
                <mxCell id="5" value="" style="edgeStyle=orthogonalEdgeStyle;rounded=0;orthogonalLoop=1;jettySize=auto;html=1;" parent="1" source="6" target="7" edge="1">
                    <mxGeometry relative="1" as="geometry"/>
                </mxCell>
                <mxCell id="6" value="" style="rounded=0;whiteSpace=wrap;html=1;" parent="1" vertex="1">
                    <mxGeometry x="240" y="240" width="80" height="80" as="geometry"/>
                </mxCell>
                <mxCell id="7" value="" style="rounded=0;whiteSpace=wrap;html=1;" parent="1" vertex="1">
                    <mxGeometry x="120" y="240" width="80" height="80" as="geometry"/>
                </mxCell>
                <mxCell id="8" value="" style="ellipse;whiteSpace=wrap;html=1;aspect=fixed;fillColor=#d5e8d4;strokeColor=#82b366;" parent="1" vertex="1">
                    <mxGeometry x="290" y="290" width="20" height="20" as="geometry"/>
                </mxCell>
                <mxCell id="9" value="" style="ellipse;whiteSpace=wrap;html=1;aspect=fixed;fillColor=#f8cecc;strokeColor=#b85450;" parent="1" vertex="1">
                    <mxGeometry x="130" y="250" width="20" height="20" as="geometry"/>
                </mxCell>
                <mxCell id="10" value="" style="ellipse;whiteSpace=wrap;html=1;aspect=fixed;fillColor=#fff2cc;strokeColor=#d6b656;" parent="1" vertex="1">
                    <mxGeometry x="130" y="290" width="20" height="20" as="geometry"/>
                </mxCell>
                <mxCell id="11" value="" style="ellipse;whiteSpace=wrap;html=1;aspect=fixed;fillColor=#f8cecc;strokeColor=#b85450;" parent="1" vertex="1">
                    <mxGeometry x="370" y="290" width="20" height="20" as="geometry"/>
                </mxCell>
                <mxCell id="12" value="" style="ellipse;whiteSpace=wrap;html=1;aspect=fixed;fillColor=#f8cecc;strokeColor=#b85450;" parent="1" vertex="1">
                    <mxGeometry x="290" y="250" width="20" height="20" as="geometry"/>
                </mxCell>
                <mxCell id="13" value="" style="ellipse;whiteSpace=wrap;html=1;aspect=fixed;fillColor=#d5e8d4;strokeColor=#82b366;" parent="1" vertex="1">
                    <mxGeometry x="370" y="250" width="20" height="20" as="geometry"/>
                </mxCell>
                <mxCell id="14" value="" style="ellipse;whiteSpace=wrap;html=1;aspect=fixed;fillColor=#f8cecc;strokeColor=#b85450;" parent="1" vertex="1">
                    <mxGeometry x="170" y="250" width="20" height="20" as="geometry"/>
                </mxCell>
                <mxCell id="15" value="" style="ellipse;whiteSpace=wrap;html=1;aspect=fixed;fillColor=#fff2cc;strokeColor=#d6b656;" parent="1" vertex="1">
                    <mxGeometry x="410" y="290" width="20" height="20" as="geometry"/>
                </mxCell>
                <mxCell id="16" value="" style="edgeStyle=orthogonalEdgeStyle;rounded=0;orthogonalLoop=1;jettySize=auto;html=1;" parent="1" source="17" target="18" edge="1">
                    <mxGeometry relative="1" as="geometry"/>
                </mxCell>
                <mxCell id="17" value="" style="ellipse;whiteSpace=wrap;html=1;aspect=fixed;fillColor=#fff2cc;strokeColor=#d6b656;" parent="1" vertex="1">
                    <mxGeometry x="660" y="230" width="20" height="20" as="geometry"/>
                </mxCell>
                <mxCell id="18" value="" style="ellipse;whiteSpace=wrap;html=1;aspect=fixed;fillColor=#fff2cc;strokeColor=#d6b656;" parent="1" vertex="1">
                    <mxGeometry x="560" y="230" width="20" height="20" as="geometry"/>
                </mxCell>
                <mxCell id="19" value="" style="edgeStyle=orthogonalEdgeStyle;rounded=0;orthogonalLoop=1;jettySize=auto;html=1;" parent="1" source="20" target="22" edge="1">
                    <mxGeometry relative="1" as="geometry"/>
                </mxCell>
                <mxCell id="20" value="" style="ellipse;whiteSpace=wrap;html=1;aspect=fixed;fillColor=#f8cecc;strokeColor=#b85450;" parent="1" vertex="1">
                    <mxGeometry x="760" y="270" width="20" height="20" as="geometry"/>
                </mxCell>
                <mxCell id="21" value="" style="edgeStyle=orthogonalEdgeStyle;rounded=0;orthogonalLoop=1;jettySize=auto;html=1;" parent="1" source="22" target="23" edge="1">
                    <mxGeometry relative="1" as="geometry"/>
                </mxCell>
                <mxCell id="22" value="" style="ellipse;whiteSpace=wrap;html=1;aspect=fixed;fillColor=#f8cecc;strokeColor=#b85450;" parent="1" vertex="1">
                    <mxGeometry x="660" y="270" width="20" height="20" as="geometry"/>
                </mxCell>
                <mxCell id="23" value="" style="ellipse;whiteSpace=wrap;html=1;aspect=fixed;fillColor=#f8cecc;strokeColor=#b85450;" parent="1" vertex="1">
                    <mxGeometry x="560" y="270" width="20" height="20" as="geometry"/>
                </mxCell>
                <mxCell id="24" value="" style="edgeStyle=orthogonalEdgeStyle;rounded=0;orthogonalLoop=1;jettySize=auto;html=1;" parent="1" source="25" target="26" edge="1">
                    <mxGeometry relative="1" as="geometry"/>
                </mxCell>
                <mxCell id="25" value="" style="ellipse;whiteSpace=wrap;html=1;aspect=fixed;fillColor=#d5e8d4;strokeColor=#82b366;" parent="1" vertex="1">
                    <mxGeometry x="660" y="310" width="20" height="20" as="geometry"/>
                </mxCell>
                <mxCell id="26" value="" style="ellipse;whiteSpace=wrap;html=1;aspect=fixed;fillColor=#d5e8d4;strokeColor=#82b366;" parent="1" vertex="1">
                    <mxGeometry x="560" y="310" width="20" height="20" as="geometry"/>
                </mxCell>
                <mxCell id="27" value="Single ledger" style="text;html=1;strokeColor=none;fillColor=none;align=center;verticalAlign=middle;whiteSpace=wrap;rounded=0;" parent="1" vertex="1">
                    <mxGeometry x="225" y="200" width="110" height="40" as="geometry"/>
                </mxCell>
                <mxCell id="28" value="Multiple microledgers" style="text;html=1;strokeColor=none;fillColor=none;align=center;verticalAlign=middle;whiteSpace=wrap;rounded=0;" parent="1" vertex="1">
                    <mxGeometry x="590" y="190" width="160" height="40" as="geometry"/>
                </mxCell>
                <mxCell id="29" value="" style="shape=flexArrow;endArrow=classic;html=1;rounded=0;fillColor=#f5f5f5;strokeColor=#666666;" parent="1" edge="1">
                    <mxGeometry width="50" height="50" relative="1" as="geometry">
                        <mxPoint x="480" y="280" as="sourcePoint"/>
                        <mxPoint x="530" y="280" as="targetPoint"/>
                    </mxGeometry>
                </mxCell>
            </root>
        </mxGraphModel>
    </diagram>
    <diagram id="8aGeNtYwTgr3voKE60aR" name="subject-state">
        <mxGraphModel dx="3015" dy="1936" grid="1" gridSize="10" guides="1" tooltips="1" connect="1" arrows="1" fold="1" page="1" pageScale="1" pageWidth="827" pageHeight="1169" math="0" shadow="0">
            <root>
                <mxCell id="0"/>
                <mxCell id="1" parent="0"/>
                <mxCell id="yK25LPugvc2pKhpyz2Fw-10" value="" style="group" vertex="1" connectable="0" parent="1">
                    <mxGeometry x="-1110" y="10" width="200" height="166.26" as="geometry"/>
                </mxCell>
                <mxCell id="yK25LPugvc2pKhpyz2Fw-11" value="" style="group;fillColor=default;shadow=1;shape=mxgraph.basic.rect;topLeftStyle=rounded;topRightStyle=rounded;container=0;" vertex="1" parent="yK25LPugvc2pKhpyz2Fw-10">
                    <mxGeometry width="140" height="140" as="geometry"/>
                </mxCell>
                <mxCell id="yK25LPugvc2pKhpyz2Fw-12" value="&lt;p style=&quot;line-height: 0%; font-size: 11px;&quot;&gt;&lt;font color=&quot;#646464&quot; style=&quot;font-size: 11px;&quot;&gt;&lt;code style=&quot;&quot; class=&quot;codeBlockLines_node_modules-@docusaurus-theme-classic-lib-theme-CodeBlock-Content-styles-module&quot;&gt;&lt;span style=&quot;&quot; class=&quot;token-line&quot;&gt;&lt;span style=&quot;&quot; class=&quot;token string&quot;&gt;{&lt;/span&gt;&lt;/span&gt;&lt;span style=&quot;&quot; class=&quot;token-line&quot;&gt;&lt;span class=&quot;token string&quot;&gt;&lt;/span&gt;&lt;/span&gt;&lt;/code&gt;&lt;/font&gt;&lt;/p&gt;&lt;div style=&quot;line-height: 130%; font-size: 11px;&quot; align=&quot;left&quot;&gt;&lt;pre style=&quot;font-size: 9px; line-height: 130%;&quot; class=&quot;prism-code language-bash codeBlock_node_modules-@docusaurus-theme-classic-lib-theme-CodeBlock-Content-styles-module thin-scrollbar&quot; tabindex=&quot;0&quot;&gt;&lt;font style=&quot;font-size: 9px;&quot;&gt;&lt;font color=&quot;#646464&quot;&gt;&lt;code style=&quot;&quot; class=&quot;codeBlockLines_node_modules-@docusaurus-theme-classic-lib-theme-CodeBlock-Content-styles-module&quot;&gt;&lt;span class=&quot;token-line&quot;&gt;&lt;span class=&quot;token string&quot;&gt;  &quot;Speed&quot;: &quot;34&lt;/span&gt;&lt;/span&gt;&lt;/code&gt;&lt;code style=&quot;&quot; class=&quot;codeBlockLines_node_modules-@docusaurus-theme-classic-lib-theme-CodeBlock-Content-styles-module&quot;&gt;&lt;span class=&quot;token-line&quot;&gt;&lt;span class=&quot;token string&quot;&gt;&quot;,&lt;/span&gt;&lt;br&gt;&lt;/span&gt;&lt;span class=&quot;token-line&quot;&gt;&lt;span class=&quot;token string&quot;&gt;  &quot;temperature&quot;: &quot;38&lt;/span&gt;&lt;/span&gt;&lt;/code&gt;&lt;/font&gt;&lt;code style=&quot;&quot; class=&quot;codeBlockLines_node_modules-@docusaurus-theme-classic-lib-theme-CodeBlock-Content-styles-module&quot;&gt;&lt;font color=&quot;#646464&quot;&gt;&lt;span style=&quot;&quot; class=&quot;token-line&quot;&gt;&lt;span class=&quot;token string&quot;&gt;&quot;,&lt;/span&gt;&lt;br&gt;  &quot;preassure: 1100&quot;,&lt;br&gt;     .&lt;br&gt;     . &lt;font style=&quot;font-size: 9px;&quot;&gt;//other fields&lt;/font&gt;&lt;br&gt;     .&lt;/span&gt;&lt;span style=&quot;&quot; class=&quot;token-line&quot;&gt;&lt;br&gt;&lt;/span&gt;&lt;span style=&quot;&quot; class=&quot;token-line&quot;&gt;&lt;span style=&quot;&quot; class=&quot;token string&quot;&gt;}&lt;/span&gt;&lt;/span&gt;&lt;/font&gt;&lt;span style=&quot;color: rgb(227, 17, 108);&quot; class=&quot;token-line&quot;&gt;&lt;span class=&quot;token string&quot;&gt;&lt;br&gt;&lt;/span&gt;&lt;/span&gt;&lt;/code&gt;&lt;/font&gt;&lt;/pre&gt;&lt;/div&gt;&lt;p style=&quot;font-size: 11px;&quot;&gt;&lt;/p&gt;" style="rounded=0;whiteSpace=wrap;html=1;connectable=0;recursiveResize=0;expand=0;fillColor=#D4D4D4;strokeColor=#adadad;shadow=0;align=left;" vertex="1" parent="yK25LPugvc2pKhpyz2Fw-10">
                    <mxGeometry y="26.25" width="140" height="113.75" as="geometry"/>
                </mxCell>
                <mxCell id="yK25LPugvc2pKhpyz2Fw-13" value="&lt;b&gt;&lt;font color=&quot;#646464&quot;&gt;Subject State&lt;/font&gt;&lt;/b&gt;" style="rounded=1;whiteSpace=wrap;html=1;shadow=0;shape=mxgraph.basic.rect;top=1;topLeftStyle=rounded;topRightStyle=rounded;rotation=0;fillColor=#E6E6E6;align=center;fontColor=#333333;strokeColor=#adadad;" vertex="1" parent="yK25LPugvc2pKhpyz2Fw-10">
                    <mxGeometry width="140" height="26.25" as="geometry"/>
                </mxCell>
                <mxCell id="yK25LPugvc2pKhpyz2Fw-14" value="" style="group" vertex="1" connectable="0" parent="yK25LPugvc2pKhpyz2Fw-10">
                    <mxGeometry x="30" y="13.129999999999999" width="170" height="153.13" as="geometry"/>
                </mxCell>
                <mxCell id="yK25LPugvc2pKhpyz2Fw-15" value="" style="group;fillColor=default;shadow=1;shape=mxgraph.basic.rect;topLeftStyle=rounded;topRightStyle=rounded;container=0;" vertex="1" parent="yK25LPugvc2pKhpyz2Fw-14">
                    <mxGeometry width="140" height="140" as="geometry"/>
                </mxCell>
                <mxCell id="yK25LPugvc2pKhpyz2Fw-16" value="&lt;p style=&quot;line-height: 0%; font-size: 11px;&quot;&gt;&lt;font color=&quot;#646464&quot; style=&quot;font-size: 11px;&quot;&gt;&lt;code style=&quot;&quot; class=&quot;codeBlockLines_node_modules-@docusaurus-theme-classic-lib-theme-CodeBlock-Content-styles-module&quot;&gt;&lt;span style=&quot;&quot; class=&quot;token-line&quot;&gt;&lt;span style=&quot;&quot; class=&quot;token string&quot;&gt;{&lt;/span&gt;&lt;/span&gt;&lt;span style=&quot;&quot; class=&quot;token-line&quot;&gt;&lt;span class=&quot;token string&quot;&gt;&lt;/span&gt;&lt;/span&gt;&lt;/code&gt;&lt;/font&gt;&lt;/p&gt;&lt;div style=&quot;line-height: 130%; font-size: 11px;&quot; align=&quot;left&quot;&gt;&lt;pre style=&quot;font-size: 9px; line-height: 130%;&quot; class=&quot;prism-code language-bash codeBlock_node_modules-@docusaurus-theme-classic-lib-theme-CodeBlock-Content-styles-module thin-scrollbar&quot; tabindex=&quot;0&quot;&gt;&lt;font style=&quot;font-size: 9px;&quot;&gt;&lt;font color=&quot;#646464&quot;&gt;&lt;code style=&quot;&quot; class=&quot;codeBlockLines_node_modules-@docusaurus-theme-classic-lib-theme-CodeBlock-Content-styles-module&quot;&gt;&lt;span class=&quot;token-line&quot;&gt;&lt;span class=&quot;token string&quot;&gt;  &quot;Speed&quot;: &quot;34&lt;/span&gt;&lt;/span&gt;&lt;/code&gt;&lt;code style=&quot;&quot; class=&quot;codeBlockLines_node_modules-@docusaurus-theme-classic-lib-theme-CodeBlock-Content-styles-module&quot;&gt;&lt;span class=&quot;token-line&quot;&gt;&lt;span class=&quot;token string&quot;&gt;&quot;,&lt;/span&gt;&lt;br&gt;&lt;/span&gt;&lt;span class=&quot;token-line&quot;&gt;&lt;span class=&quot;token string&quot;&gt;  &quot;temperature&quot;: &quot;38&lt;/span&gt;&lt;/span&gt;&lt;/code&gt;&lt;/font&gt;&lt;code style=&quot;&quot; class=&quot;codeBlockLines_node_modules-@docusaurus-theme-classic-lib-theme-CodeBlock-Content-styles-module&quot;&gt;&lt;font color=&quot;#646464&quot;&gt;&lt;span style=&quot;&quot; class=&quot;token-line&quot;&gt;&lt;span class=&quot;token string&quot;&gt;&quot;,&lt;/span&gt;&lt;br&gt;  &quot;preassure: 1100&quot;,&lt;br&gt;     .&lt;br&gt;     . &lt;font style=&quot;font-size: 9px;&quot;&gt;//other fields&lt;/font&gt;&lt;br&gt;     .&lt;/span&gt;&lt;span style=&quot;&quot; class=&quot;token-line&quot;&gt;&lt;br&gt;&lt;/span&gt;&lt;span style=&quot;&quot; class=&quot;token-line&quot;&gt;&lt;span style=&quot;&quot; class=&quot;token string&quot;&gt;}&lt;/span&gt;&lt;/span&gt;&lt;/font&gt;&lt;span style=&quot;color: rgb(227, 17, 108);&quot; class=&quot;token-line&quot;&gt;&lt;span class=&quot;token string&quot;&gt;&lt;br&gt;&lt;/span&gt;&lt;/span&gt;&lt;/code&gt;&lt;/font&gt;&lt;/pre&gt;&lt;/div&gt;&lt;p style=&quot;font-size: 11px;&quot;&gt;&lt;/p&gt;" style="rounded=0;whiteSpace=wrap;html=1;connectable=0;recursiveResize=0;expand=0;fillColor=#D4D4D4;strokeColor=#adadad;shadow=0;align=left;" vertex="1" parent="yK25LPugvc2pKhpyz2Fw-14">
                    <mxGeometry y="26.25" width="140" height="113.75" as="geometry"/>
                </mxCell>
                <mxCell id="yK25LPugvc2pKhpyz2Fw-17" value="&lt;b&gt;&lt;font color=&quot;#646464&quot;&gt;Subject State&lt;/font&gt;&lt;/b&gt;" style="rounded=1;whiteSpace=wrap;html=1;shadow=0;shape=mxgraph.basic.rect;top=1;topLeftStyle=rounded;topRightStyle=rounded;rotation=0;fillColor=#E6E6E6;align=center;fontColor=#333333;strokeColor=#adadad;" vertex="1" parent="yK25LPugvc2pKhpyz2Fw-14">
                    <mxGeometry width="140" height="26.25" as="geometry"/>
                </mxCell>
                <mxCell id="yK25LPugvc2pKhpyz2Fw-1" value="" style="group" vertex="1" connectable="0" parent="yK25LPugvc2pKhpyz2Fw-14">
                    <mxGeometry x="30" y="13.130000000000006" width="140" height="140" as="geometry"/>
                </mxCell>
                <mxCell id="a1DmdT0auYkMrpDo9LuI-74" value="" style="group;fillColor=default;shadow=1;shape=mxgraph.basic.rect;topLeftStyle=rounded;topRightStyle=rounded;container=0;" parent="yK25LPugvc2pKhpyz2Fw-1" vertex="1">
                    <mxGeometry width="140" height="140" as="geometry"/>
                </mxCell>
                <mxCell id="a1DmdT0auYkMrpDo9LuI-75" value="&lt;p style=&quot;line-height: 0%; font-size: 11px;&quot;&gt;&lt;font color=&quot;#646464&quot; style=&quot;font-size: 11px;&quot;&gt;&lt;code style=&quot;&quot; class=&quot;codeBlockLines_node_modules-@docusaurus-theme-classic-lib-theme-CodeBlock-Content-styles-module&quot;&gt;&lt;span style=&quot;&quot; class=&quot;token-line&quot;&gt;&lt;span style=&quot;&quot; class=&quot;token string&quot;&gt;{&lt;/span&gt;&lt;/span&gt;&lt;span style=&quot;&quot; class=&quot;token-line&quot;&gt;&lt;span class=&quot;token string&quot;&gt;&lt;/span&gt;&lt;/span&gt;&lt;/code&gt;&lt;/font&gt;&lt;/p&gt;&lt;div style=&quot;line-height: 130%; font-size: 11px;&quot; align=&quot;left&quot;&gt;&lt;pre style=&quot;font-size: 9px; line-height: 130%;&quot; class=&quot;prism-code language-bash codeBlock_node_modules-@docusaurus-theme-classic-lib-theme-CodeBlock-Content-styles-module thin-scrollbar&quot; tabindex=&quot;0&quot;&gt;&lt;font style=&quot;font-size: 9px;&quot;&gt;&lt;font color=&quot;#646464&quot;&gt;&lt;code style=&quot;&quot; class=&quot;codeBlockLines_node_modules-@docusaurus-theme-classic-lib-theme-CodeBlock-Content-styles-module&quot;&gt;&lt;span class=&quot;token-line&quot;&gt;&lt;span class=&quot;token string&quot;&gt;  &quot;Speed&quot;: &quot;34&lt;/span&gt;&lt;/span&gt;&lt;/code&gt;&lt;code style=&quot;&quot; class=&quot;codeBlockLines_node_modules-@docusaurus-theme-classic-lib-theme-CodeBlock-Content-styles-module&quot;&gt;&lt;span class=&quot;token-line&quot;&gt;&lt;span class=&quot;token string&quot;&gt;&quot;,&lt;/span&gt;&lt;br&gt;&lt;/span&gt;&lt;span class=&quot;token-line&quot;&gt;&lt;span class=&quot;token string&quot;&gt;  &quot;temperature&quot;: &quot;38&lt;/span&gt;&lt;/span&gt;&lt;/code&gt;&lt;/font&gt;&lt;code style=&quot;&quot; class=&quot;codeBlockLines_node_modules-@docusaurus-theme-classic-lib-theme-CodeBlock-Content-styles-module&quot;&gt;&lt;font color=&quot;#646464&quot;&gt;&lt;span style=&quot;&quot; class=&quot;token-line&quot;&gt;&lt;span class=&quot;token string&quot;&gt;&quot;,&lt;/span&gt;&lt;br&gt;  &quot;preassure: 1100&quot;,&lt;br&gt;     .&lt;br&gt;     . &lt;font style=&quot;font-size: 9px;&quot;&gt;//other fields&lt;/font&gt;&lt;br&gt;     .&lt;/span&gt;&lt;span style=&quot;&quot; class=&quot;token-line&quot;&gt;&lt;br&gt;&lt;/span&gt;&lt;span style=&quot;&quot; class=&quot;token-line&quot;&gt;&lt;span style=&quot;&quot; class=&quot;token string&quot;&gt;}&lt;/span&gt;&lt;/span&gt;&lt;/font&gt;&lt;span style=&quot;color: rgb(227, 17, 108);&quot; class=&quot;token-line&quot;&gt;&lt;span class=&quot;token string&quot;&gt;&lt;br&gt;&lt;/span&gt;&lt;/span&gt;&lt;/code&gt;&lt;/font&gt;&lt;/pre&gt;&lt;/div&gt;&lt;p style=&quot;font-size: 11px;&quot;&gt;&lt;/p&gt;" style="rounded=0;whiteSpace=wrap;html=1;connectable=0;recursiveResize=0;expand=0;fillColor=#D4D4D4;strokeColor=#adadad;shadow=0;align=left;" parent="yK25LPugvc2pKhpyz2Fw-1" vertex="1">
                    <mxGeometry y="26.25" width="140" height="113.75" as="geometry"/>
                </mxCell>
                <mxCell id="a1DmdT0auYkMrpDo9LuI-76" value="&lt;b&gt;&lt;font color=&quot;#646464&quot;&gt;Subject State&lt;/font&gt;&lt;/b&gt;" style="rounded=1;whiteSpace=wrap;html=1;shadow=0;shape=mxgraph.basic.rect;top=1;topLeftStyle=rounded;topRightStyle=rounded;rotation=0;fillColor=#E6E6E6;align=center;fontColor=#333333;strokeColor=#adadad;" parent="yK25LPugvc2pKhpyz2Fw-1" vertex="1">
                    <mxGeometry width="140" height="26.25" as="geometry"/>
                </mxCell>
                <mxCell id="E-75FNHeoQjSZk5LuBHs-197" value="" style="endArrow=classic;html=1;rounded=0;fontSize=15;exitX=0.175;exitY=1.006;exitDx=0;exitDy=0;exitPerimeter=0;entryX=0.178;entryY=0.042;entryDx=0;entryDy=0;entryPerimeter=0;" parent="1" target="yK25LPugvc2pKhpyz2Fw-17" edge="1" source="a1DmdT0auYkMrpDo9LuI-27">
                    <mxGeometry width="50" height="50" relative="1" as="geometry">
                        <mxPoint x="-1055.48" y="-9.949999999999818" as="sourcePoint"/>
                        <mxPoint x="-1055" y="20" as="targetPoint"/>
                    </mxGeometry>
                </mxCell>
                <mxCell id="RuB9R44QnvC5c1UhyNs6-58" style="edgeStyle=none;html=1;entryX=-0.005;entryY=0.605;entryDx=0;entryDy=0;entryPerimeter=0;exitX=1;exitY=0.5;exitDx=0;exitDy=0;" parent="1" edge="1" target="a1DmdT0auYkMrpDo9LuI-90" source="RuB9R44QnvC5c1UhyNs6-59">
                    <mxGeometry relative="1" as="geometry">
                        <mxPoint x="-791" y="38.469999999999985" as="targetPoint"/>
                        <mxPoint x="-808.31" y="38.5" as="sourcePoint"/>
                    </mxGeometry>
                </mxCell>
                <mxCell id="RuB9R44QnvC5c1UhyNs6-49" style="edgeStyle=none;html=1;" parent="1" source="RuB9R44QnvC5c1UhyNs6-45" edge="1">
                    <mxGeometry relative="1" as="geometry">
                        <mxPoint x="-550" y="122" as="targetPoint"/>
                    </mxGeometry>
                </mxCell>
                <mxCell id="RuB9R44QnvC5c1UhyNs6-45" value="" style="shape=image;html=1;verticalAlign=top;verticalLabelPosition=bottom;labelBackgroundColor=#ffffff;imageAspect=0;aspect=fixed;image=https://cdn4.iconfinder.com/data/icons/ionicons/512/icon-ios7-plus-outline-128.png" parent="1" vertex="1">
                    <mxGeometry x="-600" y="110" width="23" height="23" as="geometry"/>
                </mxCell>
                <mxCell id="RuB9R44QnvC5c1UhyNs6-46" style="edgeStyle=none;html=1;entryX=0.5;entryY=0;entryDx=0;entryDy=0;" parent="1" edge="1" target="RuB9R44QnvC5c1UhyNs6-45">
                    <mxGeometry relative="1" as="geometry">
                        <mxPoint x="-588" y="-10" as="sourcePoint"/>
                        <mxPoint x="-588.1100000000001" y="26.907000000000153" as="targetPoint"/>
                    </mxGeometry>
                </mxCell>
                <mxCell id="RuB9R44QnvC5c1UhyNs6-48" value="" style="endArrow=classic;html=1;exitX=0.993;exitY=0.601;exitDx=0;exitDy=0;exitPerimeter=0;entryX=0;entryY=0.5;entryDx=0;entryDy=0;" parent="1" source="a1DmdT0auYkMrpDo9LuI-90" edge="1" target="RuB9R44QnvC5c1UhyNs6-45">
                    <mxGeometry width="50" height="50" relative="1" as="geometry">
                        <mxPoint x="-630" y="40" as="sourcePoint"/>
                        <mxPoint x="-600" y="40" as="targetPoint"/>
                    </mxGeometry>
                </mxCell>
                <mxCell id="RuB9R44QnvC5c1UhyNs6-59" value="" style="shape=image;html=1;verticalAlign=top;verticalLabelPosition=bottom;labelBackgroundColor=#ffffff;imageAspect=0;aspect=fixed;image=https://cdn4.iconfinder.com/data/icons/ionicons/512/icon-ios7-plus-outline-128.png" parent="1" vertex="1">
                    <mxGeometry x="-827" y="110" width="23" height="23" as="geometry"/>
                </mxCell>
                <mxCell id="RuB9R44QnvC5c1UhyNs6-61" value="" style="endArrow=classic;html=1;" parent="1" edge="1">
                    <mxGeometry width="50" height="50" relative="1" as="geometry">
                        <mxPoint x="-849.31" y="121.41" as="sourcePoint"/>
                        <mxPoint x="-829.31" y="121.41" as="targetPoint"/>
                    </mxGeometry>
                </mxCell>
                <mxCell id="RuB9R44QnvC5c1UhyNs6-62" value="" style="endArrow=none;dashed=1;html=1;dashPattern=1 4;strokeWidth=2;" parent="1" edge="1">
                    <mxGeometry width="50" height="50" relative="1" as="geometry">
                        <mxPoint x="-900" y="122" as="sourcePoint"/>
                        <mxPoint x="-850" y="121.62" as="targetPoint"/>
                    </mxGeometry>
                </mxCell>
                <mxCell id="a1DmdT0auYkMrpDo9LuI-77" value="" style="endArrow=classic;html=1;rounded=0;fontSize=15;exitX=0.17;exitY=1.016;exitDx=0;exitDy=0;exitPerimeter=0;" parent="1" edge="1" source="a1DmdT0auYkMrpDo9LuI-10">
                    <mxGeometry width="50" height="50" relative="1" as="geometry">
                        <mxPoint x="-1085.48" y="-9.949999999999818" as="sourcePoint"/>
                        <mxPoint x="-1085" y="10" as="targetPoint"/>
                    </mxGeometry>
                </mxCell>
                <mxCell id="RuB9R44QnvC5c1UhyNs6-63" value="" style="endArrow=classic;html=1;strokeWidth=2;exitX=-0.007;exitY=0.802;exitDx=0;exitDy=0;exitPerimeter=0;" parent="1" source="a1DmdT0auYkMrpDo9LuI-81" edge="1">
                    <mxGeometry width="50" height="50" relative="1" as="geometry">
                        <mxPoint x="-830" y="-50" as="sourcePoint"/>
                        <mxPoint x="-870" y="-50" as="targetPoint"/>
                    </mxGeometry>
                </mxCell>
                <mxCell id="RuB9R44QnvC5c1UhyNs6-64" value="" style="endArrow=none;dashed=1;html=1;dashPattern=1 4;strokeWidth=2;" parent="1" edge="1">
                    <mxGeometry width="50" height="50" relative="1" as="geometry">
                        <mxPoint x="-900" y="-50.2" as="sourcePoint"/>
                        <mxPoint x="-870" y="-50.2" as="targetPoint"/>
                    </mxGeometry>
                </mxCell>
                <mxCell id="a1DmdT0auYkMrpDo9LuI-22" value="" style="group" parent="1" vertex="1" connectable="0">
                    <mxGeometry x="-1109.5" y="-100" width="169.5" height="80" as="geometry"/>
                </mxCell>
                <mxCell id="a1DmdT0auYkMrpDo9LuI-7" value="" style="group;fillColor=default;shadow=1;shape=mxgraph.basic.rect;topLeftStyle=rounded;topRightStyle=rounded;container=0;" parent="a1DmdT0auYkMrpDo9LuI-22" vertex="1" connectable="0">
                    <mxGeometry width="140" height="70" as="geometry"/>
                </mxCell>
                <mxCell id="a1DmdT0auYkMrpDo9LuI-8" value="&lt;div align=&quot;left&quot;&gt;&lt;b&gt;&amp;nbsp;&amp;nbsp;&amp;nbsp;&amp;nbsp;&amp;nbsp;&amp;nbsp;&amp;nbsp;&amp;nbsp;&amp;nbsp;&amp;nbsp;&amp;nbsp;&amp;nbsp; Event: NJH10&lt;/b&gt;&lt;/div&gt;" style="rounded=1;whiteSpace=wrap;html=1;shadow=0;shape=mxgraph.basic.rect;top=1;topLeftStyle=rounded;topRightStyle=rounded;rotation=0;fillColor=#FFA700;align=left;" parent="a1DmdT0auYkMrpDo9LuI-22" vertex="1">
                    <mxGeometry width="140" height="37.5" as="geometry"/>
                </mxCell>
                <mxCell id="a1DmdT0auYkMrpDo9LuI-9" value="&lt;font style=&quot;font-size: 15px;&quot;&gt;&lt;b&gt;0&lt;/b&gt;&lt;/font&gt;" style="ellipse;whiteSpace=wrap;html=1;aspect=fixed;rounded=0;shadow=1;glass=0;comic=1;sketch=0;jiggle=1;strokeWidth=2;" parent="a1DmdT0auYkMrpDo9LuI-22" vertex="1">
                    <mxGeometry x="7" y="4.375" width="22.5" height="22.5" as="geometry"/>
                </mxCell>
                <mxCell id="a1DmdT0auYkMrpDo9LuI-10" value="Event Request&amp;nbsp; &amp;nbsp; &amp;nbsp; &amp;nbsp; &amp;nbsp; &amp;nbsp;&amp;nbsp;" style="rounded=0;whiteSpace=wrap;html=1;fillColor=#eeeeee;strokeColor=#36393d;shadow=0;" parent="a1DmdT0auYkMrpDo9LuI-22" vertex="1">
                    <mxGeometry y="37.5" width="140" height="32.5" as="geometry"/>
                </mxCell>
                <mxCell id="a1DmdT0auYkMrpDo9LuI-11" value="" style="rounded=0;whiteSpace=wrap;html=1;connectable=0;recursiveResize=0;expand=0;fillColor=#ffff88;strokeColor=#36393d;shadow=1;" parent="a1DmdT0auYkMrpDo9LuI-22" vertex="1">
                    <mxGeometry x="110" y="46.875" width="20" height="18.75" as="geometry"/>
                </mxCell>
                <mxCell id="a1DmdT0auYkMrpDo9LuI-23" value="" style="group" parent="a1DmdT0auYkMrpDo9LuI-22" vertex="1" connectable="0">
                    <mxGeometry x="29.5" y="10" width="140" height="70" as="geometry"/>
                </mxCell>
                <mxCell id="a1DmdT0auYkMrpDo9LuI-24" value="" style="group;fillColor=default;shadow=1;shape=mxgraph.basic.rect;topLeftStyle=rounded;topRightStyle=rounded;container=0;" parent="a1DmdT0auYkMrpDo9LuI-23" vertex="1" connectable="0">
                    <mxGeometry width="140" height="70" as="geometry"/>
                </mxCell>
                <mxCell id="a1DmdT0auYkMrpDo9LuI-25" value="&lt;div align=&quot;left&quot;&gt;&lt;b&gt;&amp;nbsp;&amp;nbsp;&amp;nbsp;&amp;nbsp;&amp;nbsp;&amp;nbsp;&amp;nbsp;&amp;nbsp;&amp;nbsp;&amp;nbsp;&amp;nbsp;&amp;nbsp; Event: NJH10&lt;/b&gt;&lt;/div&gt;" style="rounded=1;whiteSpace=wrap;html=1;shadow=0;shape=mxgraph.basic.rect;top=1;topLeftStyle=rounded;topRightStyle=rounded;rotation=0;fillColor=#FFA700;align=left;" parent="a1DmdT0auYkMrpDo9LuI-23" vertex="1">
                    <mxGeometry width="140" height="37.5" as="geometry"/>
                </mxCell>
                <mxCell id="a1DmdT0auYkMrpDo9LuI-26" value="&lt;font style=&quot;font-size: 15px;&quot;&gt;&lt;b&gt;1&lt;/b&gt;&lt;/font&gt;" style="ellipse;whiteSpace=wrap;html=1;aspect=fixed;rounded=0;shadow=1;glass=0;comic=1;sketch=0;jiggle=1;strokeWidth=2;" parent="a1DmdT0auYkMrpDo9LuI-23" vertex="1">
                    <mxGeometry x="7" y="4.375" width="22.5" height="22.5" as="geometry"/>
                </mxCell>
                <mxCell id="a1DmdT0auYkMrpDo9LuI-27" value="Event Request&amp;nbsp; &amp;nbsp; &amp;nbsp; &amp;nbsp; &amp;nbsp; &amp;nbsp;&amp;nbsp;" style="rounded=0;whiteSpace=wrap;html=1;fillColor=#eeeeee;strokeColor=#36393d;shadow=0;" parent="a1DmdT0auYkMrpDo9LuI-23" vertex="1">
                    <mxGeometry y="37.5" width="140" height="32.5" as="geometry"/>
                </mxCell>
                <mxCell id="a1DmdT0auYkMrpDo9LuI-28" value="" style="rounded=0;whiteSpace=wrap;html=1;connectable=0;recursiveResize=0;expand=0;fillColor=#ffff88;strokeColor=#36393d;shadow=1;" parent="a1DmdT0auYkMrpDo9LuI-23" vertex="1">
                    <mxGeometry x="110" y="46.875" width="20" height="18.75" as="geometry"/>
                </mxCell>
                <mxCell id="a1DmdT0auYkMrpDo9LuI-78" value="" style="endArrow=classic;html=1;rounded=0;fontSize=15;exitX=0.218;exitY=0.981;exitDx=0;exitDy=0;exitPerimeter=0;entryX=0.174;entryY=-0.035;entryDx=0;entryDy=0;entryPerimeter=0;" parent="1" edge="1" target="a1DmdT0auYkMrpDo9LuI-76">
                    <mxGeometry width="50" height="50" relative="1" as="geometry">
                        <mxPoint x="-1025.48" y="-9.949999999999818" as="sourcePoint"/>
                        <mxPoint x="-1025.15" y="31.470000000000027" as="targetPoint"/>
                    </mxGeometry>
                </mxCell>
                <mxCell id="a1DmdT0auYkMrpDo9LuI-29" value="" style="group" parent="1" vertex="1" connectable="0">
                    <mxGeometry x="-1046" y="-80" width="140" height="70" as="geometry"/>
                </mxCell>
                <mxCell id="a1DmdT0auYkMrpDo9LuI-30" value="" style="group;fillColor=default;shadow=1;shape=mxgraph.basic.rect;topLeftStyle=rounded;topRightStyle=rounded;container=0;" parent="a1DmdT0auYkMrpDo9LuI-29" vertex="1" connectable="0">
                    <mxGeometry width="140" height="70" as="geometry"/>
                </mxCell>
                <mxCell id="a1DmdT0auYkMrpDo9LuI-31" value="&lt;div align=&quot;left&quot;&gt;&lt;b&gt;&amp;nbsp;&amp;nbsp;&amp;nbsp;&amp;nbsp;&amp;nbsp;&amp;nbsp;&amp;nbsp;&amp;nbsp;&amp;nbsp;&amp;nbsp;&amp;nbsp;&amp;nbsp; Event: NJH10&lt;/b&gt;&lt;/div&gt;" style="rounded=1;whiteSpace=wrap;html=1;shadow=0;shape=mxgraph.basic.rect;top=1;topLeftStyle=rounded;topRightStyle=rounded;rotation=0;fillColor=#FFA700;align=left;" parent="a1DmdT0auYkMrpDo9LuI-29" vertex="1">
                    <mxGeometry width="140" height="37.5" as="geometry"/>
                </mxCell>
                <mxCell id="a1DmdT0auYkMrpDo9LuI-32" value="&lt;font size=&quot;1&quot;&gt;&lt;b style=&quot;font-size: 15px;&quot;&gt;2&lt;/b&gt;&lt;/font&gt;" style="ellipse;whiteSpace=wrap;html=1;aspect=fixed;rounded=0;shadow=1;glass=0;comic=1;sketch=0;jiggle=1;strokeWidth=2;" parent="a1DmdT0auYkMrpDo9LuI-29" vertex="1">
                    <mxGeometry x="7" y="4.375" width="22.5" height="22.5" as="geometry"/>
                </mxCell>
                <mxCell id="a1DmdT0auYkMrpDo9LuI-33" value="Event Request&amp;nbsp; &amp;nbsp; &amp;nbsp; &amp;nbsp; &amp;nbsp; &amp;nbsp;&amp;nbsp;" style="rounded=0;whiteSpace=wrap;html=1;fillColor=#eeeeee;strokeColor=#36393d;shadow=0;" parent="a1DmdT0auYkMrpDo9LuI-29" vertex="1">
                    <mxGeometry y="37.5" width="140" height="32.5" as="geometry"/>
                </mxCell>
                <mxCell id="a1DmdT0auYkMrpDo9LuI-34" value="" style="rounded=0;whiteSpace=wrap;html=1;connectable=0;recursiveResize=0;expand=0;fillColor=#FFFF89;strokeColor=#36393d;shadow=1;" parent="a1DmdT0auYkMrpDo9LuI-29" vertex="1">
                    <mxGeometry x="110" y="44.375" width="20" height="18.75" as="geometry"/>
                </mxCell>
                <mxCell id="a1DmdT0auYkMrpDo9LuI-79" value="" style="group" parent="1" vertex="1" connectable="0">
                    <mxGeometry x="-827" y="-80" width="140" height="70" as="geometry"/>
                </mxCell>
                <mxCell id="a1DmdT0auYkMrpDo9LuI-80" value="" style="group;fillColor=default;shadow=1;shape=mxgraph.basic.rect;topLeftStyle=rounded;topRightStyle=rounded;container=0;" parent="a1DmdT0auYkMrpDo9LuI-79" vertex="1" connectable="0">
                    <mxGeometry width="140" height="70" as="geometry"/>
                </mxCell>
                <mxCell id="a1DmdT0auYkMrpDo9LuI-81" value="&lt;div align=&quot;left&quot;&gt;&lt;b&gt;&amp;nbsp;&amp;nbsp;&amp;nbsp;&amp;nbsp;&amp;nbsp;&amp;nbsp;&amp;nbsp;&amp;nbsp;&amp;nbsp;&amp;nbsp;&amp;nbsp;&amp;nbsp; Event: &lt;/b&gt;&lt;b&gt;3GH67&lt;/b&gt;&lt;/div&gt;" style="rounded=1;whiteSpace=wrap;html=1;shadow=0;shape=mxgraph.basic.rect;top=1;topLeftStyle=rounded;topRightStyle=rounded;rotation=0;fillColor=#FFA700;align=left;" parent="a1DmdT0auYkMrpDo9LuI-79" vertex="1">
                    <mxGeometry width="140" height="37.5" as="geometry"/>
                </mxCell>
                <mxCell id="a1DmdT0auYkMrpDo9LuI-82" value="&lt;font size=&quot;1&quot;&gt;&lt;b style=&quot;font-size: 15px;&quot;&gt;6&lt;/b&gt;&lt;/font&gt;" style="ellipse;whiteSpace=wrap;html=1;aspect=fixed;rounded=0;shadow=1;glass=0;comic=1;sketch=0;jiggle=1;strokeWidth=2;" parent="a1DmdT0auYkMrpDo9LuI-79" vertex="1">
                    <mxGeometry x="7" y="4.375" width="22.5" height="22.5" as="geometry"/>
                </mxCell>
                <mxCell id="a1DmdT0auYkMrpDo9LuI-83" value="Event Request&amp;nbsp; &amp;nbsp; &amp;nbsp; &amp;nbsp; &amp;nbsp; &amp;nbsp;&amp;nbsp;" style="rounded=0;whiteSpace=wrap;html=1;fillColor=#eeeeee;strokeColor=#36393d;shadow=0;" parent="a1DmdT0auYkMrpDo9LuI-79" vertex="1">
                    <mxGeometry y="37.5" width="140" height="32.5" as="geometry"/>
                </mxCell>
                <mxCell id="a1DmdT0auYkMrpDo9LuI-84" value="" style="rounded=0;whiteSpace=wrap;html=1;connectable=0;recursiveResize=0;expand=0;fillColor=#FFFF89;strokeColor=#36393d;shadow=1;" parent="a1DmdT0auYkMrpDo9LuI-79" vertex="1">
                    <mxGeometry x="110" y="44.375" width="20" height="18.75" as="geometry"/>
                </mxCell>
                <mxCell id="a1DmdT0auYkMrpDo9LuI-85" value="" style="endArrow=classic;html=1;rounded=0;fontSize=15;exitX=0.09;exitY=1.044;exitDx=0;exitDy=0;exitPerimeter=0;" parent="1" edge="1" target="RuB9R44QnvC5c1UhyNs6-59" source="a1DmdT0auYkMrpDo9LuI-83">
                    <mxGeometry width="50" height="50" relative="1" as="geometry">
                        <mxPoint x="-817.8599999999999" y="-9.837500000000091" as="sourcePoint"/>
                        <mxPoint x="-817.972" y="28.011999999999944" as="targetPoint"/>
                    </mxGeometry>
                </mxCell>
                <mxCell id="a1DmdT0auYkMrpDo9LuI-87" value="&amp;nbsp;" style="text;whiteSpace=wrap;html=1;fontSize=15;" parent="1" vertex="1">
                    <mxGeometry x="-980" y="10" width="40" height="40" as="geometry"/>
                </mxCell>
                <mxCell id="a1DmdT0auYkMrpDo9LuI-99" value="" style="group" parent="1" vertex="1" connectable="0">
                    <mxGeometry x="-600" y="-80" width="140" height="70" as="geometry"/>
                </mxCell>
                <mxCell id="a1DmdT0auYkMrpDo9LuI-117" value="" style="group" parent="a1DmdT0auYkMrpDo9LuI-99" vertex="1" connectable="0">
                    <mxGeometry width="140" height="70" as="geometry"/>
                </mxCell>
                <mxCell id="a1DmdT0auYkMrpDo9LuI-100" value="" style="group;fillColor=default;shadow=1;shape=mxgraph.basic.rect;topLeftStyle=rounded;topRightStyle=rounded;container=0;" parent="a1DmdT0auYkMrpDo9LuI-117" vertex="1" connectable="0">
                    <mxGeometry width="140" height="70" as="geometry"/>
                </mxCell>
                <mxCell id="a1DmdT0auYkMrpDo9LuI-101" value="&lt;div align=&quot;left&quot;&gt;&lt;b&gt;&amp;nbsp;&amp;nbsp;&amp;nbsp;&amp;nbsp;&amp;nbsp;&amp;nbsp;&amp;nbsp;&amp;nbsp;&amp;nbsp;&amp;nbsp;&amp;nbsp;&amp;nbsp; Event: FGK9Z&lt;/b&gt;&lt;/div&gt;" style="rounded=1;whiteSpace=wrap;html=1;shadow=0;shape=mxgraph.basic.rect;top=1;topLeftStyle=rounded;topRightStyle=rounded;rotation=0;fillColor=#FFA700;align=left;" parent="a1DmdT0auYkMrpDo9LuI-117" vertex="1">
                    <mxGeometry width="140" height="37.5" as="geometry"/>
                </mxCell>
                <mxCell id="a1DmdT0auYkMrpDo9LuI-102" value="&lt;font size=&quot;1&quot;&gt;&lt;b style=&quot;font-size: 15px;&quot;&gt;7&lt;/b&gt;&lt;/font&gt;" style="ellipse;whiteSpace=wrap;html=1;aspect=fixed;rounded=0;shadow=1;glass=0;comic=1;sketch=0;jiggle=1;strokeWidth=2;" parent="a1DmdT0auYkMrpDo9LuI-117" vertex="1">
                    <mxGeometry x="7" y="4.375" width="22.5" height="22.5" as="geometry"/>
                </mxCell>
                <mxCell id="a1DmdT0auYkMrpDo9LuI-103" value="Event Request&amp;nbsp; &amp;nbsp; &amp;nbsp; &amp;nbsp; &amp;nbsp; &amp;nbsp;&amp;nbsp;" style="rounded=0;whiteSpace=wrap;html=1;fillColor=#eeeeee;strokeColor=#36393d;shadow=0;" parent="a1DmdT0auYkMrpDo9LuI-117" vertex="1">
                    <mxGeometry y="37.5" width="140" height="32.5" as="geometry"/>
                </mxCell>
                <mxCell id="a1DmdT0auYkMrpDo9LuI-104" value="" style="rounded=0;whiteSpace=wrap;html=1;connectable=0;recursiveResize=0;expand=0;fillColor=#FFFF89;strokeColor=#36393d;shadow=1;" parent="a1DmdT0auYkMrpDo9LuI-117" vertex="1">
                    <mxGeometry x="110" y="44.375" width="20" height="18.75" as="geometry"/>
                </mxCell>
                <mxCell id="a1DmdT0auYkMrpDo9LuI-105" value="" style="ellipse;whiteSpace=wrap;html=1;aspect=fixed;shadow=0;fontSize=15;fillColor=none;dashed=1;" parent="a1DmdT0auYkMrpDo9LuI-99" vertex="1">
                    <mxGeometry x="105" y="38.75" width="30" height="30" as="geometry"/>
                </mxCell>
                <mxCell id="E-75FNHeoQjSZk5LuBHs-246" value="" style="endArrow=none;dashed=1;html=1;dashPattern=1 3;strokeWidth=2;rounded=0;exitX=0.006;exitY=0.537;exitDx=0;exitDy=0;shadow=1;entryX=0.928;entryY=0.277;entryDx=0;entryDy=0;entryPerimeter=0;exitPerimeter=0;" parent="1" source="E-75FNHeoQjSZk5LuBHs-243" target="a1DmdT0auYkMrpDo9LuI-105" edge="1">
                    <mxGeometry width="50" height="50" relative="1" as="geometry">
                        <mxPoint x="-455" y="230" as="sourcePoint"/>
                        <mxPoint x="-440" y="-40" as="targetPoint"/>
                    </mxGeometry>
                </mxCell>
                <mxCell id="a1DmdT0auYkMrpDo9LuI-107" value="" style="group" parent="1" vertex="1" connectable="0">
                    <mxGeometry x="-550" y="37" width="140" height="140" as="geometry"/>
                </mxCell>
                <mxCell id="a1DmdT0auYkMrpDo9LuI-119" value="" style="group" parent="a1DmdT0auYkMrpDo9LuI-107" vertex="1" connectable="0">
                    <mxGeometry width="140" height="140" as="geometry"/>
                </mxCell>
                <mxCell id="a1DmdT0auYkMrpDo9LuI-108" value="" style="group;fillColor=default;shadow=1;shape=mxgraph.basic.rect;topLeftStyle=rounded;topRightStyle=rounded;container=0;" parent="a1DmdT0auYkMrpDo9LuI-119" vertex="1">
                    <mxGeometry width="140" height="140" as="geometry"/>
                </mxCell>
                <mxCell id="a1DmdT0auYkMrpDo9LuI-109" value="&lt;p style=&quot;line-height: 0%; font-size: 11px;&quot;&gt;&lt;font style=&quot;font-size: 11px;&quot; color=&quot;#E3116C&quot;&gt;&lt;code class=&quot;codeBlockLines_node_modules-@docusaurus-theme-classic-lib-theme-CodeBlock-Content-styles-module&quot;&gt;&lt;span class=&quot;token-line&quot;&gt;&lt;span class=&quot;token string&quot;&gt;{&lt;/span&gt;&lt;/span&gt;&lt;span class=&quot;token-line&quot;&gt;&lt;span class=&quot;token string&quot;&gt;&lt;/span&gt;&lt;/span&gt;&lt;/code&gt;&lt;/font&gt;&lt;/p&gt;&lt;div style=&quot;line-height: 130%; font-size: 11px;&quot; align=&quot;left&quot;&gt;&lt;pre style=&quot;font-size: 9px; line-height: 130%;&quot; class=&quot;prism-code language-bash codeBlock_node_modules-@docusaurus-theme-classic-lib-theme-CodeBlock-Content-styles-module thin-scrollbar&quot; tabindex=&quot;0&quot;&gt;&lt;font style=&quot;font-size: 9px;&quot; color=&quot;#E3116C&quot;&gt;&lt;code class=&quot;codeBlockLines_node_modules-@docusaurus-theme-classic-lib-theme-CodeBlock-Content-styles-module&quot;&gt;&lt;span class=&quot;token-line&quot;&gt;&lt;span class=&quot;token string&quot;&gt;  &lt;b&gt;&quot;speed&quot;: &quot;40&lt;/b&gt;&lt;/span&gt;&lt;/span&gt;&lt;/code&gt;&lt;code class=&quot;codeBlockLines_node_modules-@docusaurus-theme-classic-lib-theme-CodeBlock-Content-styles-module&quot;&gt;&lt;span class=&quot;token-line&quot;&gt;&lt;span class=&quot;token string&quot;&gt;&lt;b&gt;&quot;&lt;/b&gt;,&lt;/span&gt;&lt;br&gt;&lt;/span&gt;&lt;span class=&quot;token-line&quot;&gt;&lt;span class=&quot;token string&quot;&gt;  &quot;temperature&quot;: &quot;35&lt;/span&gt;&lt;/span&gt;&lt;/code&gt;&lt;code class=&quot;codeBlockLines_node_modules-@docusaurus-theme-classic-lib-theme-CodeBlock-Content-styles-module&quot;&gt;&lt;span class=&quot;token-line&quot;&gt;&lt;span class=&quot;token string&quot;&gt;&quot;,&lt;/span&gt;&lt;br&gt;  &quot;preassure&quot;: &quot;1000&quot;,&lt;br&gt;     .&lt;br&gt;     . &lt;font style=&quot;font-size: 9px;&quot; color=&quot;#26a269&quot;&gt;//other fields&lt;/font&gt;&lt;br&gt;     .&lt;/span&gt;&lt;span class=&quot;token-line&quot;&gt;&lt;br&gt;&lt;/span&gt;&lt;span class=&quot;token-line&quot;&gt;&lt;span class=&quot;token string&quot;&gt;}&lt;/span&gt;&lt;/span&gt;&lt;span class=&quot;token-line&quot;&gt;&lt;span class=&quot;token string&quot;&gt;&lt;br&gt;&lt;/span&gt;&lt;/span&gt;&lt;/code&gt;&lt;/font&gt;&lt;/pre&gt;&lt;/div&gt;&lt;p style=&quot;font-size: 11px;&quot;&gt;&lt;/p&gt;" style="rounded=0;whiteSpace=wrap;html=1;connectable=0;recursiveResize=0;expand=0;fillColor=#F7F7F7;strokeColor=#000000;shadow=0;align=left;" parent="a1DmdT0auYkMrpDo9LuI-119" vertex="1">
                    <mxGeometry y="26.25" width="140" height="113.75" as="geometry"/>
                </mxCell>
                <mxCell id="a1DmdT0auYkMrpDo9LuI-110" value="&lt;b&gt;&lt;font color=&quot;#ffffff&quot;&gt;Subject State&lt;/font&gt;&lt;/b&gt;" style="rounded=1;whiteSpace=wrap;html=1;shadow=0;shape=mxgraph.basic.rect;top=1;topLeftStyle=rounded;topRightStyle=rounded;rotation=0;fillColor=#ff9d00;align=center;" parent="a1DmdT0auYkMrpDo9LuI-119" vertex="1">
                    <mxGeometry width="140" height="26.25" as="geometry"/>
                </mxCell>
                <mxCell id="a1DmdT0auYkMrpDo9LuI-111" value="Current state" style="text;html=1;strokeColor=#d79b00;fillColor=#ffe6cc;align=center;verticalAlign=middle;whiteSpace=wrap;rounded=1;fontSize=16;perimeterSpacing=0;fontStyle=0" parent="1" vertex="1">
                    <mxGeometry x="-790" y="190" width="140" height="30" as="geometry"/>
                </mxCell>
                <mxCell id="a1DmdT0auYkMrpDo9LuI-112" value="New state" style="text;html=1;strokeColor=#d79b00;fillColor=#ffe6cc;align=center;verticalAlign=middle;whiteSpace=wrap;rounded=1;fontSize=16;perimeterSpacing=0;fontStyle=0" parent="1" vertex="1">
                    <mxGeometry x="-550" y="190" width="140" height="30" as="geometry"/>
                </mxCell>
                <mxCell id="a1DmdT0auYkMrpDo9LuI-89" value="" style="group" parent="1" vertex="1" connectable="0">
                    <mxGeometry x="-780" y="37" width="140" height="140" as="geometry"/>
                </mxCell>
                <mxCell id="a1DmdT0auYkMrpDo9LuI-90" value="" style="group;fillColor=default;shadow=1;shape=mxgraph.basic.rect;topLeftStyle=rounded;topRightStyle=rounded;container=0;" parent="a1DmdT0auYkMrpDo9LuI-89" vertex="1">
                    <mxGeometry width="140" height="140" as="geometry"/>
                </mxCell>
                <mxCell id="a1DmdT0auYkMrpDo9LuI-91" value="&lt;p style=&quot;line-height: 0%;&quot;&gt;&lt;font style=&quot;font-size: 12px;&quot; color=&quot;#E3116C&quot;&gt;&lt;code class=&quot;codeBlockLines_node_modules-@docusaurus-theme-classic-lib-theme-CodeBlock-Content-styles-module&quot;&gt;&lt;span class=&quot;token-line&quot;&gt;&lt;span class=&quot;token string&quot;&gt;{&lt;/span&gt;&lt;/span&gt;&lt;span class=&quot;token-line&quot;&gt;&lt;span class=&quot;token string&quot;&gt;&lt;/span&gt;&lt;/span&gt;&lt;/code&gt;&lt;/font&gt;&lt;/p&gt;&lt;div style=&quot;line-height: 130%; font-size: 11px;&quot; align=&quot;left&quot;&gt;&lt;pre style=&quot;font-size: 9px; line-height: 130%;&quot; class=&quot;prism-code language-bash codeBlock_node_modules-@docusaurus-theme-classic-lib-theme-CodeBlock-Content-styles-module thin-scrollbar&quot; tabindex=&quot;0&quot;&gt;&lt;font style=&quot;font-size: 9px;&quot; color=&quot;#E3116C&quot;&gt;&lt;code class=&quot;codeBlockLines_node_modules-@docusaurus-theme-classic-lib-theme-CodeBlock-Content-styles-module&quot;&gt;&lt;span class=&quot;token-line&quot;&gt;&lt;span class=&quot;token string&quot;&gt;  &quot;speed&quot;: &quot;30&lt;/span&gt;&lt;/span&gt;&lt;/code&gt;&lt;code class=&quot;codeBlockLines_node_modules-@docusaurus-theme-classic-lib-theme-CodeBlock-Content-styles-module&quot;&gt;&lt;span class=&quot;token-line&quot;&gt;&lt;span class=&quot;token string&quot;&gt;&quot;,&lt;/span&gt;&lt;br&gt;&lt;/span&gt;&lt;span class=&quot;token-line&quot;&gt;&lt;span class=&quot;token string&quot;&gt;  &quot;temperature&quot;: &quot;35&lt;/span&gt;&lt;/span&gt;&lt;/code&gt;&lt;code class=&quot;codeBlockLines_node_modules-@docusaurus-theme-classic-lib-theme-CodeBlock-Content-styles-module&quot;&gt;&lt;span class=&quot;token-line&quot;&gt;&lt;span class=&quot;token string&quot;&gt;&quot;,&lt;/span&gt;&lt;br&gt;  &quot;preassure&quot;: &quot;1000&quot;,&lt;br&gt;     .&lt;br&gt;     . &lt;font style=&quot;font-size: 9px;&quot; color=&quot;#26a269&quot;&gt;//other fields&lt;/font&gt;&lt;br&gt;     .&lt;/span&gt;&lt;span class=&quot;token-line&quot;&gt;&lt;br&gt;&lt;/span&gt;&lt;span class=&quot;token-line&quot;&gt;&lt;span class=&quot;token string&quot;&gt;}&lt;/span&gt;&lt;/span&gt;&lt;span class=&quot;token-line&quot;&gt;&lt;span class=&quot;token string&quot;&gt;&lt;br&gt;&lt;/span&gt;&lt;/span&gt;&lt;/code&gt;&lt;/font&gt;&lt;/pre&gt;&lt;/div&gt;&lt;p style=&quot;font-size: 11px;&quot;&gt;&lt;/p&gt;" style="rounded=0;whiteSpace=wrap;html=1;connectable=0;recursiveResize=0;expand=0;fillColor=#FFFFFF;strokeColor=#000000;shadow=0;align=left;" parent="a1DmdT0auYkMrpDo9LuI-89" vertex="1">
                    <mxGeometry y="26.25" width="140" height="113.75" as="geometry"/>
                </mxCell>
                <mxCell id="a1DmdT0auYkMrpDo9LuI-92" value="&lt;b&gt;&lt;font color=&quot;#ffffff&quot;&gt;Subject State&lt;/font&gt;&lt;/b&gt;" style="rounded=1;whiteSpace=wrap;html=1;shadow=0;shape=mxgraph.basic.rect;top=1;topLeftStyle=rounded;topRightStyle=rounded;rotation=0;fillColor=#ff9d00;align=center;fontColor=#333333;strokeColor=#000000;" parent="a1DmdT0auYkMrpDo9LuI-89" vertex="1">
                    <mxGeometry width="140" height="26.25" as="geometry"/>
                </mxCell>
                <mxCell id="a1DmdT0auYkMrpDo9LuI-114" value="" style="endArrow=classic;html=1;strokeWidth=2;exitX=-0.004;exitY=0.814;exitDx=0;exitDy=0;exitPerimeter=0;" parent="1" source="a1DmdT0auYkMrpDo9LuI-101" edge="1">
                    <mxGeometry width="50" height="50" relative="1" as="geometry">
                        <mxPoint x="-607.98" y="-49.924999999999955" as="sourcePoint"/>
                        <mxPoint x="-680" y="-50" as="targetPoint"/>
                    </mxGeometry>
                </mxCell>
                <mxCell id="a1DmdT0auYkMrpDo9LuI-116" value="New event" style="text;html=1;strokeColor=#d79b00;fillColor=#ffe6cc;align=center;verticalAlign=middle;whiteSpace=wrap;rounded=1;fontSize=16;perimeterSpacing=0;fontStyle=0" parent="1" vertex="1">
                    <mxGeometry x="-600" y="-120" width="140" height="30" as="geometry"/>
                </mxCell>
                <mxCell id="LPNBQlKSsfAnFRNN1-cb-1" value="Outdated&amp;nbsp;states" style="text;html=1;strokeColor=#d79b00;fillColor=#ffe6cc;align=center;verticalAlign=middle;whiteSpace=wrap;rounded=1;fontSize=16;perimeterSpacing=0;fontStyle=0" parent="1" vertex="1">
                    <mxGeometry x="-1050" y="190" width="140" height="30" as="geometry"/>
                </mxCell>
                <mxCell id="LPNBQlKSsfAnFRNN1-cb-2" value="Last event" style="text;html=1;strokeColor=#d79b00;fillColor=#ffe6cc;align=center;verticalAlign=middle;whiteSpace=wrap;rounded=1;fontSize=16;perimeterSpacing=0;fontStyle=0" parent="1" vertex="1">
                    <mxGeometry x="-827" y="-120" width="140" height="30" as="geometry"/>
                </mxCell>
                <mxCell id="E-75FNHeoQjSZk5LuBHs-243" value="" style="ellipse;whiteSpace=wrap;html=1;aspect=fixed;rounded=1;shadow=1;glass=0;comic=0;sketch=0;fillColor=#eeeeee;strokeColor=#36393d;container=0;dashed=1;" parent="1" vertex="1">
                    <mxGeometry x="-441" y="-157" width="150" height="150" as="geometry"/>
                </mxCell>
                <mxCell id="E-75FNHeoQjSZk5LuBHs-249" value="&lt;div align=&quot;left&quot;&gt;&lt;pre style=&quot;font-size: 11px;&quot; class=&quot;prism-code language-bash codeBlock_node_modules-@docusaurus-theme-classic-lib-theme-CodeBlock-Content-styles-module thin-scrollbar&quot; tabindex=&quot;0&quot;&gt;&lt;pre style=&quot;border-color: var(--border-color);&quot; class=&quot;prism-code language-bash codeBlock_node_modules-@docusaurus-theme-classic-lib-theme-CodeBlock-Content-styles-module thin-scrollbar&quot; tabindex=&quot;0&quot;&gt;&lt;font style=&quot;border-color: var(--border-color);&quot; color=&quot;#E3116C&quot;&gt;&lt;code style=&quot;border-color: var(--border-color);&quot; class=&quot;codeBlockLines_node_modules-@docusaurus-theme-classic-lib-theme-CodeBlock-Content-styles-module&quot;&gt;&lt;span style=&quot;border-color: var(--border-color);&quot; class=&quot;token-line&quot;&gt;&lt;span style=&quot;border-color: var(--border-color);&quot; class=&quot;token string&quot;&gt; {&lt;/span&gt;&lt;/span&gt;&lt;span style=&quot;border-color: var(--border-color);&quot; class=&quot;token-line&quot;&gt;&lt;span style=&quot;border-color: var(--border-color);&quot; class=&quot;token string&quot;&gt;&lt;br style=&quot;border-color: var(--border-color);&quot;&gt;     &quot;speed&quot;: &quot;40&lt;/span&gt;&lt;/span&gt;&lt;/code&gt;&lt;code style=&quot;border-color: var(--border-color);&quot; class=&quot;codeBlockLines_node_modules-@docusaurus-theme-classic-lib-theme-CodeBlock-Content-styles-module&quot;&gt;&lt;span style=&quot;border-color: var(--border-color);&quot; class=&quot;token-line&quot;&gt;&lt;span style=&quot;border-color: var(--border-color);&quot; class=&quot;token string&quot;&gt;&quot;,&lt;/span&gt;&lt;br style=&quot;border-color: var(--border-color);&quot;&gt; &lt;/span&gt;&lt;span style=&quot;border-color: var(--border-color);&quot; class=&quot;token-line&quot;&gt;&lt;span style=&quot;border-color: var(--border-color);&quot; class=&quot;token string&quot;&gt;}&lt;/span&gt;&lt;/span&gt;&lt;/code&gt;&lt;code style=&quot;border-color: var(--border-color);&quot; class=&quot;codeBlockLines_node_modules-@docusaurus-theme-classic-lib-theme-CodeBlock-Content-styles-module&quot;&gt;&lt;span style=&quot;border-color: var(--border-color);&quot; class=&quot;token-line&quot;&gt;&lt;/span&gt;&lt;span style=&quot;border-color: var(--border-color);&quot; class=&quot;token-line&quot;&gt;&lt;span style=&quot;border-color: var(--border-color);&quot; class=&quot;token string&quot;&gt;&lt;br&gt;&lt;/span&gt;&lt;/span&gt;&lt;/code&gt;&lt;/font&gt;&lt;/pre&gt;&lt;/pre&gt;&lt;/div&gt;" style="rounded=0;whiteSpace=wrap;html=1;connectable=0;recursiveResize=0;expand=0;fillColor=#E8E87C;strokeColor=#36393d;shadow=1;align=left;container=0;" parent="1" vertex="1">
                    <mxGeometry x="-433" y="-111.5" width="135" height="52.5" as="geometry"/>
                </mxCell>
            </root>
        </mxGraphModel>
    </diagram>
</mxfile>